<svg width="24" height="24" viewBox="0 0 24 24" fill="none" xmlns="http://www.w3.org/2000/svg">
<path d="M16.8629 3.33594H6.13555C4.12689 3.33594 2.5 4.96282 2.5 6.97224V17.7019C2.5 19.7091 4.12689 21.3359 6.13555 21.3359H16.8652C18.8724 21.3359 20.5007 19.7091 20.5007 17.7004V6.97224C20.4992 4.96282 18.8724 3.33594 16.8629 3.33594ZM7.47666 17.5871C7.25165 17.9809 6.74985 18.1137 6.35607 17.8886C5.96229 17.6636 5.82953 17.1618 6.05455 16.7681L6.63959 15.7555C7.30115 15.5507 7.83819 15.7082 8.26423 16.2213L7.47666 17.5871ZM13.1644 15.3782H5.71777C5.26323 15.3782 4.8987 15.0137 4.8987 14.5591C4.8987 14.1046 5.26323 13.7401 5.71777 13.7401H7.80519L10.4784 9.10767L9.6436 7.65855C9.41858 7.26476 9.55134 6.76747 9.94512 6.53795C10.3389 6.31294 10.8362 6.4457 11.0657 6.83948L11.4235 7.47178L11.788 6.84173C12.013 6.44795 12.5148 6.31519 12.9086 6.5402C13.3024 6.76522 13.4352 7.26701 13.2101 7.66005L9.69835 13.7393H12.2388C13.0609 13.7401 13.5222 14.7076 13.1644 15.3782ZM17.1765 15.3827H15.9929L16.7917 16.7681C17.0167 17.1618 16.8839 17.6591 16.4902 17.8886C16.0964 18.1137 15.5991 17.9809 15.3696 17.5871C14.0247 15.2537 13.0136 13.5083 12.3438 12.3449C11.6575 11.1613 12.1481 9.97324 12.6318 9.57046C13.1696 10.493 13.973 11.8859 15.0455 13.7446H17.1765C17.631 13.7446 17.9955 14.1091 17.9955 14.5636C17.9948 15.0182 17.631 15.3827 17.1765 15.3827Z" fill="white"/>
</svg>
