<svg width="150" height="33" viewBox="0 0 150 33" fill="none" xmlns="http://www.w3.org/2000/svg">
<rect x="0.0818702" y="0.0818702" width="32.5843" height="32.5843" rx="8.10515" fill="url(#paint0_linear_2401_35575)" stroke="url(#paint1_linear_2401_35575)" stroke-width="0.16374"/>
<path fill-rule="evenodd" clip-rule="evenodd" d="M10.2273 15.1857C10.874 14.568 11.7317 14.2236 12.6234 14.2236C13.5151 14.2236 14.3728 14.568 15.0195 15.1857L15.0332 15.1995L16.4769 16.6519L17.922 15.1995L17.9357 15.1857C18.5823 14.5688 19.4394 14.2249 20.3304 14.2249C21.2215 14.2249 22.0786 14.5688 22.7252 15.1857C23.0463 15.4921 23.3022 15.8611 23.4771 16.2701C23.6521 16.6792 23.7425 17.1198 23.7429 17.5651C23.7433 18.0104 23.6536 18.4511 23.4794 18.8605C23.3051 19.2698 23.0499 19.6393 22.7293 19.9463L16.9545 25.5933C16.8264 25.7185 16.6548 25.7886 16.4762 25.7886C16.2976 25.7886 16.126 25.7185 15.998 25.5933L10.2245 19.9463C9.90401 19.6394 9.64889 19.2701 9.47464 18.8609C9.3004 18.4518 9.21068 18.0112 9.21094 17.5661C9.21119 17.1209 9.30142 16.6805 9.47614 16.2715C9.65085 15.8625 9.9064 15.4922 10.2273 15.1857Z" fill="white"/>
<path d="M14.2352 7.89418C13.6394 8.4936 13.3047 9.30659 13.3047 10.1543C13.3047 11.002 13.6394 11.815 14.2352 12.4144C14.831 13.0138 15.6391 13.3506 16.4817 13.3506C17.3242 13.3506 18.1323 13.0138 18.7281 12.4144C19.3239 11.815 19.6586 11.002 19.6586 10.1543C19.6586 9.30659 19.3239 8.4936 18.7281 7.89418C18.1323 7.29476 17.3242 6.95801 16.4817 6.95801C15.6391 6.95801 14.831 7.29476 14.2352 7.89418Z" fill="white"/>
<path d="M21.9004 10.7452V9.73336H25.3799V10.7452H21.9004ZM23.1301 8.39062H24.1566V12.0748H23.1301V8.39062Z" fill="white"/>
<path d="M37.7157 23.2783C37.1661 23.2783 36.7466 23.1265 36.4573 22.8227C36.1681 22.519 36.0234 22.0923 36.0234 21.5427V9.50164C36.0234 8.93755 36.1681 8.51087 36.4573 8.2216C36.7611 7.93232 37.1878 7.78769 37.7374 7.78769H43.0094C44.7161 7.78769 46.0323 8.2216 46.958 9.08942C47.8837 9.94278 48.3465 11.136 48.3465 12.6692C48.3465 14.2024 47.8837 15.4028 46.958 16.2707C46.0323 17.1385 44.7161 17.5724 43.0094 17.5724H39.3863V21.5427C39.3863 22.0923 39.2416 22.519 38.9523 22.8227C38.6775 23.1265 38.2653 23.2783 37.7157 23.2783ZM39.3863 14.9689H42.4453C43.3132 14.9689 43.9713 14.7737 44.4196 14.3831C44.8825 13.9926 45.1139 13.4213 45.1139 12.6692C45.1139 11.9171 44.8825 11.353 44.4196 10.9769C43.9713 10.6009 43.3132 10.4129 42.4453 10.4129H39.3863V14.9689Z" fill="#15203D"/>
<path d="M51.8384 23.2783C51.3033 23.2783 50.8911 23.1337 50.6018 22.8444C50.327 22.5552 50.1896 22.1429 50.1896 21.6078V9.26299C50.1896 8.71336 50.327 8.30115 50.6018 8.02634C50.8911 7.73706 51.3033 7.59243 51.8384 7.59243C52.3591 7.59243 52.7569 7.73706 53.0317 8.02634C53.321 8.30115 53.4656 8.71336 53.4656 9.26299V14.4265H53.1619C53.4945 13.7178 53.9863 13.1754 54.6372 12.7994C55.3025 12.4088 56.0546 12.2136 56.8935 12.2136C57.7469 12.2136 58.4484 12.3799 58.998 12.7126C59.5476 13.0308 59.9598 13.5226 60.2346 14.1879C60.5094 14.8388 60.6468 15.6704 60.6468 16.6829V21.6078C60.6468 22.1429 60.5022 22.5552 60.2129 22.8444C59.9381 23.1337 59.5331 23.2783 58.998 23.2783C58.4773 23.2783 58.0723 23.1337 57.783 22.8444C57.5082 22.5552 57.3708 22.1429 57.3708 21.6078V16.8347C57.3708 16.0971 57.2334 15.5692 56.9586 15.251C56.6982 14.9183 56.2933 14.752 55.7436 14.752C55.0494 14.752 54.4925 14.9689 54.0731 15.4028C53.6681 15.8368 53.4656 16.4153 53.4656 17.1385V21.6078C53.4656 22.7215 52.9232 23.2783 51.8384 23.2783Z" fill="#15203D"/>
<path d="M65.9347 27.1835C65.5587 27.1835 65.2477 27.0823 65.0018 26.8798C64.7559 26.6773 64.6113 26.4097 64.5679 26.0771C64.5245 25.7589 64.5824 25.419 64.7415 25.0574L66.1951 21.8464V23.1916L62.3549 14.3831C62.2103 14.0071 62.1597 13.66 62.2031 13.3418C62.2609 13.0091 62.42 12.7487 62.6804 12.5607C62.9552 12.3582 63.3312 12.257 63.8085 12.257C64.1991 12.257 64.51 12.351 64.7415 12.539C64.9873 12.7126 65.2115 13.0525 65.414 13.5587L67.9741 20.0674H67.2798L69.9267 13.537C70.1292 13.0453 70.3534 12.7126 70.5993 12.539C70.8596 12.351 71.2067 12.257 71.6407 12.257C72.0167 12.257 72.3132 12.3582 72.5302 12.5607C72.7616 12.7487 72.899 13.0019 72.9424 13.3201C73.0002 13.6383 72.9424 13.9854 72.7688 14.3615L67.6704 25.9252C67.4534 26.417 67.2075 26.7496 66.9327 26.9232C66.6724 27.0968 66.3397 27.1835 65.9347 27.1835Z" fill="#15203D"/>
<path d="M78.5035 23.3217C77.8671 23.3217 77.209 23.2639 76.5292 23.1482C75.8639 23.0325 75.2564 22.8372 74.7068 22.5624C74.4175 22.4177 74.2078 22.237 74.0776 22.02C73.9619 21.7886 73.9113 21.5572 73.9257 21.3257C73.9402 21.0943 74.0125 20.8846 74.1427 20.6966C74.2873 20.5085 74.4681 20.3856 74.6851 20.3277C74.9165 20.2554 75.1696 20.2771 75.4444 20.3928C76.0374 20.6387 76.5798 20.8123 77.0716 20.9135C77.5634 21.0148 78.0479 21.0654 78.5252 21.0654C79.1471 21.0654 79.5955 20.9714 79.8703 20.7833C80.1596 20.5809 80.3042 20.3205 80.3042 20.0023C80.3042 19.713 80.2102 19.4961 80.0222 19.3514C79.8342 19.2068 79.5594 19.1056 79.1978 19.0477L76.9197 18.6355C76.023 18.4764 75.3287 18.1509 74.8369 17.6592C74.3596 17.153 74.121 16.5093 74.121 15.7283C74.121 15.0051 74.3235 14.3831 74.7285 13.8625C75.1335 13.3273 75.6903 12.9223 76.399 12.6475C77.1222 12.3582 77.9394 12.2136 78.8506 12.2136C79.5015 12.2136 80.1017 12.2714 80.6514 12.3872C81.201 12.5029 81.7289 12.6909 82.2351 12.9512C82.4955 13.0814 82.6763 13.255 82.7775 13.4719C82.8932 13.6889 82.9294 13.9131 82.886 14.1445C82.8571 14.3759 82.7703 14.5856 82.6257 14.7737C82.481 14.9617 82.293 15.0846 82.0616 15.1425C81.8446 15.2003 81.5915 15.1714 81.3022 15.0557C80.8394 14.8388 80.4127 14.6869 80.0222 14.6001C79.6317 14.4989 79.2556 14.4482 78.894 14.4482C78.2432 14.4482 77.7731 14.5567 77.4838 14.7737C77.1945 14.9762 77.0499 15.2365 77.0499 15.5547C77.0499 15.8006 77.1294 16.0103 77.2885 16.1839C77.4621 16.343 77.7225 16.4515 78.0696 16.5093L80.3476 16.9215C81.2878 17.0806 82.0037 17.3988 82.4955 17.8761C82.9873 18.339 83.2331 18.9754 83.2331 19.7853C83.2331 20.8846 82.7992 21.7524 81.9314 22.3888C81.078 23.0108 79.9354 23.3217 78.5035 23.3217Z" fill="#15203D"/>
<path d="M86.7928 23.2566C86.2577 23.2566 85.8455 23.1048 85.5562 22.801C85.2814 22.4828 85.144 22.0417 85.144 21.4776V14.0577C85.144 13.4792 85.2814 13.038 85.5562 12.7343C85.8455 12.4161 86.2577 12.257 86.7928 12.257C87.3135 12.257 87.7113 12.4161 87.9861 12.7343C88.2754 13.038 88.42 13.4792 88.42 14.0577V21.4776C88.42 22.0417 88.2826 22.4828 88.0078 22.801C87.733 23.1048 87.328 23.2566 86.7928 23.2566ZM86.7928 10.4779C86.1854 10.4779 85.7153 10.3405 85.3826 10.0657C85.0644 9.77645 84.9053 9.37146 84.9053 8.85077C84.9053 8.31561 85.0644 7.91063 85.3826 7.63582C85.7153 7.34654 86.1854 7.2019 86.7928 7.2019C87.4003 7.2019 87.8631 7.34654 88.1814 7.63582C88.4996 7.91063 88.6586 8.31561 88.6586 8.85077C88.6586 9.37146 88.4996 9.77645 88.1814 10.0657C87.8631 10.3405 87.4003 10.4779 86.7928 10.4779Z" fill="#15203D"/>
<path d="M96.1103 23.3217C94.9677 23.3217 93.9697 23.0975 93.1163 22.6492C92.2774 22.2008 91.6266 21.5572 91.1637 20.7183C90.7009 19.8794 90.4695 18.8886 90.4695 17.746C90.4695 16.8926 90.5996 16.126 90.86 15.4462C91.1203 14.7664 91.4964 14.1879 91.9882 13.7106C92.4944 13.2188 93.0946 12.85 93.7889 12.6041C94.4832 12.3438 95.257 12.2136 96.1103 12.2136C97.253 12.2136 98.2437 12.4378 99.0826 12.8862C99.936 13.3345 100.594 13.9709 101.057 14.7954C101.534 15.6198 101.773 16.6033 101.773 17.746C101.773 18.6138 101.635 19.3876 101.361 20.0674C101.1 20.7472 100.724 21.333 100.232 21.8247C99.7407 22.3165 99.1405 22.6926 98.4318 22.9529C97.7375 23.1988 96.9637 23.3217 96.1103 23.3217ZM96.1103 20.8701C96.5876 20.8701 96.9998 20.7544 97.347 20.523C97.6941 20.2916 97.9689 19.9517 98.1714 19.5033C98.3739 19.0405 98.4752 18.4547 98.4752 17.746C98.4752 16.6901 98.2582 15.9163 97.8243 15.4245C97.3904 14.9183 96.819 14.6652 96.1103 14.6652C95.6475 14.6652 95.2353 14.7737 94.8737 14.9906C94.5266 15.2076 94.2517 15.5475 94.0492 16.0103C93.8612 16.4587 93.7672 17.0372 93.7672 17.746C93.7672 18.8018 93.9842 19.5901 94.4181 20.1108C94.852 20.617 95.4161 20.8701 96.1103 20.8701Z" fill="#15203D"/>
<path d="M108.609 23.1482C108.002 23.1482 107.38 23.0976 106.744 22.9963C106.122 22.9095 105.521 22.7794 104.943 22.6058C104.379 22.4322 103.872 22.2153 103.424 21.9549C103.106 21.7814 102.882 21.5572 102.752 21.2824C102.621 20.9931 102.571 20.7038 102.6 20.4145C102.643 20.1253 102.752 19.8722 102.925 19.6552C103.113 19.4238 103.345 19.2791 103.619 19.2213C103.909 19.149 104.227 19.1996 104.574 19.3732C105.167 19.7058 105.811 19.9517 106.505 20.1108C107.214 20.2699 107.915 20.3495 108.609 20.3495C109.665 20.3495 110.417 20.1904 110.866 19.8722C111.314 19.5395 111.538 19.1273 111.538 18.6355C111.538 18.2161 111.379 17.8834 111.061 17.6375C110.743 17.3916 110.186 17.1819 109.39 17.0083L106.939 16.4876C105.55 16.1984 104.516 15.7066 103.836 15.0123C103.171 14.3036 102.838 13.3779 102.838 12.2353C102.838 11.5121 102.99 10.854 103.294 10.261C103.598 9.66799 104.024 9.15453 104.574 8.72061C105.124 8.2867 105.774 7.95404 106.527 7.72262C107.293 7.4912 108.132 7.37549 109.043 7.37549C109.853 7.37549 110.649 7.47673 111.43 7.67923C112.211 7.86726 112.898 8.1493 113.491 8.52535C113.78 8.69892 113.975 8.92311 114.077 9.19792C114.192 9.45827 114.229 9.72584 114.185 10.0007C114.156 10.261 114.048 10.4924 113.86 10.6949C113.686 10.8974 113.462 11.0276 113.187 11.0854C112.912 11.1433 112.58 11.0782 112.189 10.8902C111.712 10.6443 111.206 10.4635 110.67 10.3478C110.135 10.2321 109.586 10.1742 109.022 10.1742C108.414 10.1742 107.893 10.2538 107.459 10.4129C107.04 10.572 106.715 10.7962 106.483 11.0854C106.266 11.3747 106.158 11.7074 106.158 12.0834C106.158 12.5029 106.31 12.8428 106.613 13.1031C106.917 13.3635 107.445 13.5732 108.197 13.7323L110.649 14.253C112.066 14.5567 113.122 15.0485 113.816 15.7283C114.511 16.3936 114.858 17.2759 114.858 18.3752C114.858 19.0983 114.713 19.7564 114.424 20.3495C114.135 20.928 113.715 21.427 113.165 21.8465C112.616 22.2659 111.958 22.5913 111.191 22.8228C110.425 23.0397 109.564 23.1482 108.609 23.1482Z" fill="#475AFF"/>
<path d="M119.516 27.01C119.14 27.01 118.829 26.9088 118.583 26.7063C118.337 26.5038 118.193 26.2362 118.149 25.9035C118.106 25.5853 118.164 25.2454 118.323 24.8838L119.777 21.6729V23.018L115.936 14.2096C115.792 13.8335 115.741 13.4864 115.785 13.1682C115.842 12.8355 116.002 12.5752 116.262 12.3872C116.537 12.1847 116.913 12.0834 117.39 12.0834C117.781 12.0834 118.092 12.1774 118.323 12.3655C118.569 12.539 118.793 12.8789 118.996 13.3852L121.556 19.8938H120.861L123.508 13.3635C123.711 12.8717 123.935 12.539 124.181 12.3655C124.441 12.1774 124.788 12.0834 125.222 12.0834C125.598 12.0834 125.895 12.1847 126.112 12.3872C126.343 12.5752 126.481 12.8283 126.524 13.1465C126.582 13.4647 126.524 13.8118 126.35 14.1879L121.252 25.7517C121.035 26.2434 120.789 26.5761 120.514 26.7497C120.254 26.9232 119.921 27.01 119.516 27.01Z" fill="#475AFF"/>
<path d="M129.867 23.1048C129.332 23.1048 128.92 22.9602 128.63 22.6709C128.356 22.3816 128.218 21.9694 128.218 21.4342V13.7323C128.218 13.1971 128.356 12.7922 128.63 12.5173C128.92 12.2281 129.317 12.0834 129.824 12.0834C130.344 12.0834 130.742 12.2281 131.017 12.5173C131.292 12.7922 131.429 13.1971 131.429 13.7323V14.9689L131.19 14.253C131.523 13.5443 132.015 13.0019 132.666 12.6258C133.331 12.2353 134.083 12.04 134.922 12.04C135.775 12.04 136.477 12.2064 137.027 12.539C137.576 12.8572 137.988 13.349 138.263 14.0143C138.538 14.6652 138.675 15.4969 138.675 16.5093V21.4342C138.675 21.9694 138.531 22.3816 138.241 22.6709C137.967 22.9602 137.562 23.1048 137.027 23.1048C136.506 23.1048 136.101 22.9602 135.812 22.6709C135.537 22.3816 135.399 21.9694 135.399 21.4342V16.6612C135.399 15.9236 135.262 15.3956 134.987 15.0774C134.727 14.7448 134.322 14.5784 133.772 14.5784C133.078 14.5784 132.521 14.7954 132.102 15.2293C131.697 15.6632 131.494 16.2418 131.494 16.9649V21.4342C131.494 22.5479 130.952 23.1048 129.867 23.1048Z" fill="#475AFF"/>
<path d="M146.347 23.1482C145.19 23.1482 144.178 22.924 143.31 22.4756C142.457 22.0128 141.798 21.3619 141.336 20.523C140.873 19.6841 140.641 18.6934 140.641 17.5507C140.641 16.6974 140.771 15.9308 141.032 15.251C141.292 14.5712 141.668 13.9926 142.16 13.5153C142.666 13.038 143.274 12.6764 143.982 12.4306C144.691 12.1702 145.479 12.04 146.347 12.04C146.796 12.04 147.273 12.0979 147.779 12.2136C148.285 12.3149 148.784 12.4956 149.276 12.756C149.565 12.8862 149.761 13.0742 149.862 13.3201C149.978 13.5515 150.021 13.7974 149.992 14.0577C149.963 14.3036 149.869 14.5278 149.71 14.7303C149.565 14.9183 149.377 15.0485 149.146 15.1208C148.915 15.1787 148.654 15.1353 148.365 14.9906C148.09 14.8315 147.801 14.7158 147.497 14.6435C147.208 14.5712 146.933 14.535 146.673 14.535C146.239 14.535 145.855 14.6074 145.523 14.752C145.19 14.8822 144.908 15.0774 144.677 15.3378C144.46 15.5837 144.286 15.8946 144.156 16.2707C144.04 16.6467 143.982 17.0807 143.982 17.5724C143.982 18.527 144.214 19.2791 144.677 19.8288C145.154 20.3639 145.819 20.6315 146.673 20.6315C146.933 20.6315 147.208 20.6026 147.497 20.5447C147.786 20.4724 148.076 20.3567 148.365 20.1976C148.654 20.0529 148.915 20.0168 149.146 20.0891C149.377 20.1614 149.558 20.2988 149.688 20.5013C149.833 20.6894 149.913 20.9135 149.927 21.1739C149.956 21.4198 149.913 21.6657 149.797 21.9115C149.696 22.143 149.508 22.3238 149.233 22.4539C148.741 22.6998 148.249 22.8734 147.757 22.9746C147.266 23.0903 146.796 23.1482 146.347 23.1482Z" fill="#475AFF"/>
<defs>
<linearGradient id="paint0_linear_2401_35575" x1="1.12571" y1="3.82648e-07" x2="29.1662" y2="31.7247" gradientUnits="userSpaceOnUse">
<stop stop-color="#475AFF"/>
<stop offset="0.47" stop-color="#7280FF"/>
<stop offset="1" stop-color="#475AFF"/>
</linearGradient>
<linearGradient id="paint1_linear_2401_35575" x1="-1.13931" y1="-5.21922" x2="34.7812" y2="37.3533" gradientUnits="userSpaceOnUse">
<stop stop-color="white"/>
<stop offset="1" stop-color="white" stop-opacity="0"/>
</linearGradient>
</defs>
</svg>
